<?xml version="1.0" encoding="UTF-8"?>
<svg id="Layer_2" data-name="Layer 2" xmlns="http://www.w3.org/2000/svg" viewBox="0 0 758.88 800">
  <defs>
    <style>
      .cls-1 {
        fill: #fff;
      }
    </style>
  </defs>
  <g id="Capa_1" data-name="Capa 1">
    <path class="cls-1" d="M732.92,516.75l-169.91-54.55-102.5-371.57-.14-.49c-6.47-20.47-13.79-38.39-21.78-53.24C426.37,14.1,402.64,0,376.58,0h-.47c-26.45.17-49.43,14.14-61.48,37.34-7.73,14.82-14.68,32.66-20.73,53.27l-97.95,355.07-170.08,71.08-1.54.77c-14.11,8.06-23.16,22.55-24.22,38.75-1.08,16.21,6.01,31.75,18.92,41.6l338.7,192.72c8.58,6.27,18.71,9.39,28.7,9.39,9.39,0,18.66-2.75,26.49-8.21l325.26-192.57c13.98-9.74,21.7-25.71,20.62-42.71-1.09-17.02-10.76-31.88-25.86-39.76ZM270.13,281.75c32.76,14.32,70.13,22.14,107.07,22.14,41.34,0,82.01-13.72,106.58-23.89l29.11,105.56c-23.86,21.39-69.89,44.06-130.75,44.06s-114.71-18.02-140.3-45.35l28.29-102.53ZM306.28,150.67l3.79,1.31c21.21,7.35,35.22,12.22,67.13,12.22,27.54,0,44.31-5.31,63.75-11.46l7.11-2.22,28.23,102.36c-21.95,9.36-60.58,23.08-99.11,23.08-34.55,0-69.43-7.6-99.54-21.46l28.64-103.84ZM320.74,98.28c5.5-18.65,11.76-34.81,18.66-48.03,7.19-13.87,21-22.21,36.88-22.31h.29c15.98,0,29.94,8.27,37.4,22.17,7.12,13.27,13.73,29.49,19.66,48.2l6.97,25.27-8.1,2.53c-18.64,5.9-32.1,10.16-55.32,10.16-27.2,0-37.48-3.56-57.95-10.67l-5.5-1.9,7.01-25.41ZM233.54,414.38c33.53,26.73,88.59,43.18,148.6,43.18s108.69-20.05,138.85-42.62l10.21,37.04h-.01l7.89,28.6c.15.56.22,1.12.35,1.68,2.77,11.61,1.24,23.61-4.11,33.54-1.87,3.48-4.21,6.69-6.99,9.56-19.4,20.06-61.39,43.96-151.17,43.96s-131.78-23.9-151.17-43.96c-11.08-11.46-15.19-28.61-10.74-44.79l13.41-48.59h-.01l4.89-17.59ZM186.63,481.46c-.21,1.3-.34,2.6-.47,3.9-.2,1.83-.35,3.66-.42,5.48-.04,1.31-.04,2.6-.03,3.9.03,1.82.11,3.62.28,5.42.11,1.29.25,2.57.43,3.86.25,1.79.57,3.56.95,5.32.27,1.24.53,2.49.85,3.72.47,1.77,1.05,3.49,1.63,5.22.41,1.17.78,2.35,1.24,3.49.71,1.75,1.54,3.44,2.37,5.13.52,1.05.99,2.11,1.56,3.14,1.01,1.8,2.17,3.53,3.32,5.24.56.81,1.03,1.68,1.62,2.47,1.83,2.46,3.79,4.83,5.95,7.06,20.27,20.96,59.93,45.42,136.25,51.2,10.9.82,22.55,1.27,35,1.27s24.1-.45,35-1.27c76.32-5.78,115.98-30.26,136.25-51.2,2.95-3.06,5.49-6.43,7.82-9.92.6-.89,1.16-1.8,1.73-2.72,2.03-3.34,3.83-6.79,5.29-10.39.11-.28.27-.54.38-.82,1.49-3.86,2.57-7.85,3.42-11.92.22-1.1.41-2.19.59-3.3.59-3.62.95-7.28,1.01-10.98,0-.46.13-.92.13-1.38l104.61,33.47-282.57,179.81-311.75-181.85,107.73-45.03c-.1.57-.11,1.13-.2,1.69ZM723.06,575.73l-325.29,192.57c-7.29,5.07-16.89,4.86-23.95-.52L35.3,575.15c-5.1-4.21-7.77-10.37-7.32-17.02.45-6.69,3.91-12.46,9.57-15.95l9.74-4.07c.54.45.94,1.02,1.56,1.38l342.64,199.87,314.54-200.15c.61-.39.99-.99,1.52-1.47l13.37,4.27c5.92,3.46,9.54,9.33,9.97,16.26.45,7.26-2.71,13.83-7.84,17.45Z"/>
  </g>
</svg>