<?xml version="1.0" encoding="UTF-8"?>
<svg id="Layer_5" data-name="Layer 5" xmlns="http://www.w3.org/2000/svg" viewBox="0 0 380 380">
  <defs>
    <style>
      .cls-1 {
        fill: #fff;
      }
    </style>
  </defs>
  <g id="Layer_6" data-name="Layer 6">
    <g>
      <g>
        <polygon class="cls-1" points="177.49 253.76 335.71 169.49 336.37 286.62 180.96 371.87 177.49 253.76"/>
        <path d="M180.96,374.5c-.45,0-.9-.12-1.31-.35-.79-.45-1.3-1.29-1.32-2.21l-3.47-118.11c-.03-1,.51-1.93,1.39-2.4l158.22-84.27c.81-.43,1.79-.41,2.59.06.79.47,1.28,1.32,1.28,2.25l.66,117.13c0,.97-.52,1.86-1.37,2.32l-155.4,85.25c-.39.22-.83.32-1.27.32ZM180.17,255.31l3.3,112.18,150.26-82.43-.62-111.21-152.93,81.45Z"/>
      </g>
      <g>
        <polygon class="cls-1" points="46.01 189.04 177.49 253.76 180.96 371.87 44.57 291.23 46.01 189.04"/>
        <path d="M180.96,374.5c-.46,0-.93-.12-1.34-.37l-136.4-80.64c-.81-.48-1.31-1.36-1.29-2.3l1.44-102.19c.01-.9.49-1.74,1.26-2.21.77-.47,1.73-.51,2.54-.12l131.48,64.72c.87.43,1.44,1.31,1.47,2.28l3.47,118.11c.03.96-.47,1.86-1.29,2.34-.41.24-.88.37-1.34.37ZM47.22,289.74l130.97,77.43-3.29-111.75-126.32-62.18-1.36,96.5Z"/>
      </g>
      <g>
        <polygon class="cls-1" points="46.01 189.04 46.45 163.57 124.51 202.81 124.51 227.2 46.01 189.04"/>
        <path d="M124.51,229.83c-.39,0-.79-.09-1.15-.26l-78.49-38.16c-.92-.45-1.5-1.39-1.48-2.41l.43-25.47c.02-.91.49-1.74,1.27-2.21.77-.47,1.73-.51,2.54-.1l78.06,39.24c.89.45,1.45,1.36,1.45,2.35v24.39c0,.91-.47,1.75-1.24,2.23-.43.27-.91.4-1.4.4ZM48.67,187.41l73.2,35.58v-18.56l-72.87-36.63-.33,19.6Z"/>
      </g>
      <g>
        <polygon class="cls-1" points="46.45 163.57 210.58 78.65 291.68 118.37 124.51 202.81 46.45 163.57"/>
        <path d="M124.51,205.44c-.4,0-.81-.09-1.18-.28l-78.06-39.24c-.88-.44-1.44-1.35-1.45-2.34s.54-1.9,1.42-2.35l164.13-84.92c.74-.38,1.62-.39,2.37-.03l81.1,39.72c.9.44,1.47,1.35,1.47,2.35,0,1-.55,1.92-1.45,2.37l-167.18,84.44c-.37.19-.78.28-1.19.28ZM52.24,163.54l72.26,36.32,161.27-81.46-75.16-36.81L52.24,163.54Z"/>
      </g>
      <g>
        <polygon class="cls-1" points="291.71 145.42 124.51 227.2 124.51 202.81 291.68 118.37 291.71 145.42"/>
        <path d="M124.51,229.83c-.49,0-.97-.13-1.39-.4-.77-.48-1.24-1.33-1.24-2.23v-24.39c0-.99.56-1.9,1.45-2.35l167.18-84.44c.81-.41,1.79-.37,2.57.11.78.48,1.25,1.33,1.25,2.24l.02,27.05c0,1.01-.57,1.92-1.48,2.37l-167.2,81.78c-.37.18-.76.27-1.16.27ZM127.14,204.43v18.55l161.93-79.2-.02-21.13-161.92,81.78Z"/>
      </g>
      <g>
        <polygon class="cls-1" points="290.3 145.14 335.71 169.49 177.49 253.76 124.51 227.2 290.3 145.14"/>
        <path d="M177.49,256.39c-.4,0-.81-.09-1.18-.28l-52.98-26.56c-.89-.45-1.46-1.36-1.45-2.36,0-1,.57-1.91,1.46-2.35l165.8-82.06c.76-.38,1.66-.36,2.41.04l45.41,24.35c.86.46,1.39,1.35,1.39,2.32,0,.97-.54,1.86-1.39,2.32l-158.22,84.27c-.39.21-.81.31-1.24.31ZM130.41,227.21l47.04,23.58,152.67-81.31-39.87-21.38-159.85,79.11Z"/>
      </g>
    </g>
    <g>
      <g id="Ellipse_1" data-name="Ellipse 1">
        <path d="M171.49,130.43c-11.85-6.1-25.05-6.58-34.56-4.66-9.15,1.84-21.95,7.64-24.03,19.51-3.77,21.48,32.8,38.84,59.83,26.87,22.05-9.77,19.15-31.23-1.24-41.72Z"/>
      </g>
      <path class="cls-1" d="M153.56,171.17c-7.07,0-14.5-1.3-21.31-5.01-8.01-4.36-11.33-9.98-11.47-10.21-.46-.79-.19-1.79.6-2.25.78-.46,1.79-.19,2.25.59.06.1,3.14,5.19,10.38,9.08,9.67,5.19,22.4,5.92,36.81,2.11.88-.23,1.78.29,2.01,1.17.23.88-.29,1.78-1.17,2.01-5.17,1.37-11.47,2.51-18.09,2.51Z"/>
      <ellipse class="cls-1" cx="150.42" cy="150.1" rx="3.13" ry="1.73"/>
    </g>
    <g>
      <g id="Ellipse_1-2" data-name="Ellipse 1">
        <path d="M233.18,97.94c-11.85-6.1-25.05-6.58-34.56-4.66-9.15,1.84-21.95,7.64-24.03,19.51-3.77,21.48,32.8,38.84,59.83,26.87,22.05-9.77,19.15-31.23-1.24-41.72Z"/>
      </g>
      <path class="cls-1" d="M215.77,138.94c-7.26,0-14.93-1.42-21.91-5.54-7.92-4.68-11.15-10.59-11.28-10.84-.43-.8-.13-1.8.67-2.23.8-.43,1.79-.13,2.22.67h0c.03.05,3.02,5.46,10.22,9.66,9.55,5.57,22.21,6.5,36.6,2.69.88-.23,1.78.29,2.01,1.17.23.88-.29,1.78-1.17,2.01-4.99,1.32-11.03,2.41-17.38,2.41Z"/>
      <ellipse class="cls-1" cx="212.11" cy="118.29" rx="3.13" ry="1.73"/>
    </g>
    <g>
      <path class="cls-1" d="M81.52,164.13c-6.55,0-13.01-2.32-19.23-6.9l7.46-141.71c1.66-1.73,6.82-6.53,12.77-6.53,3.94,0,7.66,2.16,11.08,6.42l8.59,140.83c-2.52,2.11-10.38,7.89-20.68,7.89Z"/>
      <path d="M82.53,6.36v5.26c2.91,0,5.77,1.62,8.51,4.81l8.46,138.61c-3,2.28-9.64,6.46-17.97,6.46-5.58,0-11.13-1.87-16.52-5.57l7.33-139.27c2.14-2.04,6.15-5.03,10.2-5.03v-5.26M82.53,6.36c-8.6,0-15.35,8.08-15.35,8.08l-7.58,144.04c7.9,6.18,15.39,8.28,21.93,8.28,13.84,0,23.38-9.4,23.38-9.4L96.19,14.44c-4.6-6.06-9.36-8.08-13.66-8.08h0Z"/>
    </g>
    <path d="M177.78,274.77c-.47,0-.93-.12-1.34-.37-.79-.47-1.27-1.31-1.29-2.22l-.29-18.39c-.02-.99.52-1.9,1.4-2.36l158.22-84.27c.81-.43,1.8-.41,2.59.07.79.48,1.28,1.33,1.28,2.26v19.73c0,.98-.54,1.88-1.41,2.33l-157.93,82.92c-.38.2-.8.3-1.22.3ZM180.15,255.32l.2,12.5,152.73-80.19v-13.76l-152.93,81.45Z"/>
    <g>
      <line class="cls-1" x1="335.71" y1="206.99" x2="178.44" y2="289.25"/>
      <rect x="168.33" y="245.49" width="177.49" height="5.26" transform="translate(-85.72 147.4) rotate(-27.61)"/>
    </g>
    <path d="M242.89,256.89l.4,41.46,23.16-11.58c2.74-1.37,4.45-4.18,4.42-7.24l-.4-36.46-27.59,13.82Z"/>
    <path d="M196.5,281.24l.4,41.46,23.16-11.58c2.74-1.37,4.45-4.18,4.42-7.24l-.4-36.46-27.59,13.82Z"/>
    <path d="M289.29,232.55l.4,41.46,23.16-11.58c2.74-1.37,4.45-4.18,4.42-7.24l-.4-36.46-27.59,13.82Z"/>
    <g>
      <path d="M82.1,42.2s-.07,0-.11,0c-8.85-.06-15.54-7.36-15.82-7.67l3.91-3.53c.05.06,5.46,5.91,11.98,5.94.01,0,.03,0,.04,0,3.37,0,6.57-1.61,9.52-4.79l3.86,3.58c-3.98,4.3-8.48,6.48-13.38,6.48Z"/>
      <path d="M81.52,78.12c-.12,0-.24,0-.36,0-9.74-.19-16.57-8.04-16.86-8.38l4-3.42-2,1.71,1.99-1.72c.06.06,5.65,6.42,13,6.55,4.39.09,8.68-2.11,12.74-6.5l3.86,3.58c-5.03,5.43-10.54,8.19-16.38,8.19Z"/>
      <path d="M80.94,114.06c-.2,0-.41,0-.61,0-10.58-.31-17.62-8.73-17.91-9.09l4.06-3.35c.06.07,5.88,6.96,14.05,7.18,5.37.14,10.73-2.62,15.91-8.22l3.86,3.58c-6.09,6.58-12.6,9.91-19.36,9.91Z"/>
      <path d="M80.39,150.02c-.28,0-.57,0-.85-.02-11.4-.43-18.67-9.43-18.98-9.81l4.12-3.28c.06.08,6.14,7.52,15.1,7.83,6.33.21,12.76-3.13,19.07-9.95l3.86,3.58c-7.16,7.73-14.67,11.65-22.33,11.65Z"/>
    </g>
    <path d="M124.18,227.73v-25.12l.18-.09,167.68-84.7-1.42,27.53-.17.09-166.27,82.29ZM124.83,203.01v23.66l165.15-81.74,1.34-26.01-166.49,84.09Z"/>
    <g>
      <polygon class="cls-1" points="55.51 204.17 111.08 231.29 110.78 320.26 54.85 286.17 55.51 204.17"/>
      <path d="M110.78,322.89c-.47,0-.95-.13-1.37-.38l-55.93-34.09c-.79-.48-1.27-1.34-1.26-2.27l.66-82c0-.9.48-1.74,1.25-2.22.77-.47,1.73-.52,2.54-.13l55.56,27.12c.91.44,1.48,1.36,1.48,2.37l-.29,88.97c0,.95-.52,1.83-1.35,2.29-.4.22-.84.33-1.29.33ZM57.49,284.7l50.67,30.88.27-82.65-50.33-24.57-.62,76.33Z"/>
    </g>
    <ellipse cx="82.96" cy="262.21" rx="15.42" ry="21.77"/>
    <g>
      <polygon class="cls-1" points="123.85 226.54 124.51 338.38 180.96 371.87 177.49 253.76 123.85 226.54"/>
      <path d="M180.96,374.5c-.46,0-.93-.12-1.34-.37l-56.46-33.49c-.79-.47-1.28-1.32-1.29-2.25l-.66-111.84c0-.92.47-1.77,1.25-2.25.78-.48,1.76-.52,2.57-.11l53.64,27.22c.86.44,1.41,1.31,1.44,2.27l3.47,118.11c.03.96-.47,1.86-1.29,2.34-.41.24-.87.36-1.34.36ZM127.13,336.88l51.06,30.29-3.29-111.77-48.4-24.56.62,106.04Z"/>
    </g>
    <rect x="148.51" y="245.05" width="5.26" height="61.06" transform="translate(-162.94 287.28) rotate(-63.39)"/>
    <path d="M135.66,301.1l-.28,43.67,31.21,18.19-.57-41.2c-.05-3.79-2.25-7.22-5.66-8.85l-24.69-11.81Z"/>
  </g>
</svg>