<?xml version="1.0" encoding="UTF-8"?>
<svg id="Layer_2" data-name="Layer 2" xmlns="http://www.w3.org/2000/svg" viewBox="0 0 452.31 571.93">
  <defs>
    <style>
      .cls-1 {
        fill: #fff;
      }
    </style>
  </defs>
  <g id="Layer_3" data-name="Layer 3">
    <g>
      <g>
        <path class="cls-1" d="M452.31,255.48c.02-6.25-2.12-10.14-7.63-13.08-11.77-6.28-23.14-13.35-35-19.45-5.74-2.95-7.59-6.72-7.24-12.94.52-9.38-.07-18.83.33-28.23.26-6.3-2.26-10.19-7.73-13.06-41.62-21.87-83.13-43.97-124.87-65.62-3.1-1.6-8.43-1.59-11.55-.01-17.85,9.05-35.32,18.85-52.97,28.3-28.83,15.44-57.69,30.81-87.95,46.96-.35-4.08-.62-6.44-.74-8.81-2.57-48.5-5.09-97.01-7.69-145.52-.76-14.14-4.44-20.37-16.28-22.81-7.77-1.61-16.44-1.63-24.19.04-12.26,2.65-16.46,9.69-17.06,22.3-2.84,60.35-5.76,120.69-9,181.02-.16,3.12-2.86,7.2-5.58,8.88-9.27,5.74-18.96,10.86-28.74,15.69-6,2.97-8.12,7.18-8.11,13.74C.37,307.56.26,372.24,0,436.93c-.02,6.21,2.16,10.11,7.48,13.25,66.87,39.52,133.69,79.13,200.41,118.89,5.85,3.49,10.69,3.92,16.86.55,72.65-39.78,145.39-79.39,218.23-118.82,6.36-3.45,9.32-7.52,9.29-14.94-.19-60.12-.14-120.25.04-180.38ZM93.5,19.35c-7.52,7.65-15.11,8.01-25.97.78,8.38-7.42,17.55-7.53,25.97-.78ZM92.79,42.11c-.91,4.33-1.06,11.04-2.61,11.38-6.22,1.36-13.06,1.66-19.25.34-1.94-.41-2.54-7.14-3.99-11.72h25.85ZM94.3,74.2c-.66,4.75-.42,14.07-2.29,14.51-7.48,1.79-15.8,1.71-23.39.2-1.7-.34-1.68-9.27-2.52-14.71h28.2ZM96.55,109.29c-1.03,5.23-1.15,14.41-3.24,14.88-8.14,1.86-17.13,2.02-25.3.36-2.24-.45-2.73-9.47-4.2-15.24h32.74ZM98.25,144.36c-.95,4.26-.44,11.58-3.45,13.58-8.79,5.84-19.51,5.37-28.42.15-2.93-1.71-2.54-9.06-3.64-13.73h35.51ZM62.89,178.6h35.76c2.9,13.15,1.01,15.88-13.23,16.86-3.3.22-6.67.16-9.95-.23-13.54-1.6-14.67-3.26-12.58-16.63ZM101.63,212.27c-1.02,3.11-1.14,8.67-3.58,10.02-10.67,5.9-22.26,5.71-32.98.04-2.92-1.54-3.97-6.62-5.87-10.06h42.43ZM44.66,229.75c15.36,15.19,33.57,17.74,53.28,12.5,15.9-4.22,22.69-12.89,20.99-29.06-1.2-11.37,2.63-16.9,12.69-22.08,42.61-21.95,84.67-44.98,127.05-67.41,2.48-1.32,6.58-2.16,8.79-1.02,34.75,18.01,69.32,36.38,103.91,54.7.42.22.58.94,1.31,2.2-23.5,12.52-46.91,25.1-70.4,37.5-41.59,21.97-83.29,43.73-124.79,65.86-4.9,2.61-8.38,2.63-13.15-.24-16.12-9.69-32.86-18.38-48.76-28.41-7.4-4.66-13.4-5.64-20.27-.05-2.02,1.65-4.57,2.65-8.24,4.7,18.79,10.76,36.56,20.95,54.35,31.1,6.85,3.91,14.08,7.26,20.54,11.74,6.41,4.44,11.84,3.69,18.35.24,64.58-34.29,129.28-68.37,193.96-102.49,2.9-1.53,5.86-2.97,10.18-5.16,0,10.26-.59,19.07.28,27.72.37,3.77,2.86,8.53,5.91,10.6,9.46,6.42,19.65,11.76,31.02,18.38-4.53,2.82-7.64,5.04-10.99,6.82-70.95,37.84-142.12,75.3-212.73,113.76-12.73,6.93-19.83-1.79-27.2-6.87-3.63-2.49-2.4-12.52-2.59-19.15-.04-1.44,3.1-3.33,5.1-4.4,62.21-32.94,124.43-65.88,186.73-98.65,15.57-8.19,15.7-7.93,13.41-27.18-14.43,7.57-28.6,14.95-42.73,22.42-52.84,27.95-105.71,55.85-158.42,84.03-5.52,2.95-9.38,2.77-14.7-.56-40.62-25.48-81.48-50.58-122.25-75.81-2.55-1.58-5-3.32-8.56-5.69,6.5-3.64,12.16-6.81,17.93-10.04ZM108.95,489.54c-18.64-11.38-35.04-21.49-51.55-31.43-11.41-6.86-23.12-13.26-34.35-20.4-2.49-1.58-5.05-5.41-5.05-8.21-.08-55.85.21-111.7.45-167.55,0-1.16.3-2.32.63-4.63,12.91,7.86,25.26,15.31,37.55,22.87,27.41,16.85,54.59,34.07,82.28,50.44,8.24,4.87,12.29,10.12,8.74,20.75-12.22-7.38-24.37-14.72-38.7-23.38v161.54ZM147.4,384.93q-21.75-9.92-19.83-23.96c19.92,8.01,21.21,9.52,19.83,23.96ZM171.51,526.05c-6.81-3.95-12.71-6.85-17.92-10.67-1.93-1.41-3.14-4.97-3.19-7.57-.28-16.64-.14-33.28-.14-51.76,6.86,4.03,12.41,7,17.59,10.51,1.71,1.15,3.47,3.69,3.5,5.61.27,17.45.16,34.9.16,53.88ZM207.12,545.48c-15.11-3.91-17.67-7.16-17.61-21.29.09-19.43.3-38.87-.02-58.3-.04-3.07-1.69-7.45-4.04-8.93-16.65-10.46-33.67-20.32-51.92-31.17v75.2c-.84.43-1.69.85-2.53,1.28-1.57-2.17-4.5-4.31-4.52-6.49-.29-33.32-.2-66.63-.2-101.62,17.4,10.19,33.54,19.6,49.64,29.09,8.89,5.24,17.83,10.4,26.47,16.03,2.14,1.4,4.51,4.47,4.53,6.79.29,33.07.2,66.15.2,99.41ZM206.17,419.72c-12.94-7.61-26.2-14.75-38.6-23.15-2.83-1.92-2.72-8.17-3.96-12.43.68-.43,1.36-.85,2.04-1.27,13.01,7.52,26.32,14.59,38.81,22.9,2.91,1.95,3.01,8.12,4.41,12.34-.9.54-1.8,1.07-2.7,1.61ZM224.53,387.64c-6.27,3.4-11.06,3.87-16.55-2.34,74.9-39.84,149.6-79.57,225.76-120.06,0,13.91.39,25.96-.32,37.95-.16,2.52-3.99,5.55-6.81,7.09-45.83,24.93-91.78,49.66-137.7,74.44-20.5,11.06-40.98,22.14-62.14,33.57-2.46-8.85.04-13.14,7.31-16.98,60.62-32.02,120.99-64.51,181.42-96.9,12.96-6.94,12.92-7.01,9.75-23.71-17.89,9.35-35.59,18.43-53.15,27.79-49.25,26.28-98.5,52.55-147.57,79.15ZM433.58,429.16c-.13,3.23-3.37,7.63-6.39,9.29-47.6,26.18-95.4,52-143.15,77.92-19.15,10.39-38.28,20.84-58.83,32.03,0-19.92-.06-38.54.12-57.15,0-1.46,1.34-3.49,2.64-4.26,5.92-3.51,12.05-6.66,19.41-10.63v44.67c6.97-3.6,13.09-6.19,18.49-9.83,2.17-1.46,3.77-5.19,3.92-7.98.52-10,.65-20.05.26-30.06-.24-6.17,1.14-10.23,7.47-12.57,5.29-1.95,10.1-5.22,16.36-8.57v44.51c7.15-3.5,13.27-5.98,18.77-9.46,1.93-1.22,3.18-4.83,3.27-7.4.38-10.62.64-21.29.06-31.89-.34-6.17,1.74-9.48,7.27-11.76,5.23-2.15,10.12-5.12,16.43-8.39v44.52c7.35-3.53,13.79-6.14,19.64-9.72,1.91-1.17,3.16-4.81,3.24-7.37.35-10.32.51-20.68-.04-30.97-.36-6.62,1.44-10.83,7.85-13.33,4.99-1.94,9.59-4.85,15.52-7.93v44.74c7.04-3.45,13.14-5.96,18.66-9.4,1.98-1.23,3.52-4.68,3.61-7.19.43-10.92.57-21.88.18-32.8-.21-5.62,1.46-9,6.73-11.25,6.04-2.58,11.78-5.9,18.81-9.49,0,18.34.34,35.05-.3,51.72ZM433.93,354.89c-.06,1.47-2.47,3.26-4.18,4.17-67.42,36.03-134.9,71.98-202.37,107.92-.23.12-.58.04-2.07.11,0-7.89-.36-15.45.2-22.94.18-2.44,2.22-5.72,4.35-6.88,67.42-36.61,134.96-73,204.27-110.39,0,10.31.19,19.18-.2,28.01Z"/>
        <g id="Rectangle_1" data-name="Rectangle 1">
          <path class="cls-1" d="M95.22,470.65l-65.52-36.47,1.44-149.32,66.42,46.04-2.34,139.75ZM34.8,431.21l55.49,30.89,2.16-128.58-56.33-39.04-1.32,136.73Z"/>
        </g>
        <g id="Ellipse_2" data-name="Ellipse 2">
          <path class="cls-1" d="M64.72,340.84c-6.38-4.41-12.25.03-12.71,9.62-.43,9.01,4.2,18.55,10,21.61,5.49,2.89,10.47-.88,11.43-8.67,1.02-8.22-2.72-18.42-8.72-22.56Z"/>
          <path class="cls-1" d="M65.64,375.57c-1.58,0-3.22-.42-4.81-1.26-6.83-3.6-11.82-14.13-11.35-23.97.3-6.25,2.7-10.93,6.58-12.85,3.1-1.53,6.69-1.08,10.1,1.27h0c6.65,4.59,10.96,15.56,9.8,24.96-.64,5.15-2.93,9.11-6.3,10.88-1.26.66-2.62.99-4.01.99ZM59.87,341.67c-.52,0-1.05.11-1.56.36-2.12,1.05-3.56,4.32-3.76,8.55-.41,8.57,4.14,16.87,8.65,19.25,1.53.8,2.91.89,4.11.27,1.84-.96,3.2-3.58,3.62-7,.92-7.43-2.58-16.67-7.64-20.16h0c-.92-.63-2.14-1.26-3.41-1.26Z"/>
        </g>
        <g id="Ellipse_2-2" data-name="Ellipse 2">
          <path class="cls-1" d="M64.72,395.52c-6.38-4.41-12.25.03-12.71,9.62-.43,9.01,4.2,18.55,10,21.61,5.49,2.89,10.47-.88,11.43-8.67,1.02-8.22-2.72-18.42-8.72-22.56Z"/>
          <path class="cls-1" d="M65.64,430.25c-1.58,0-3.22-.42-4.81-1.26-6.83-3.6-11.82-14.13-11.35-23.97.3-6.25,2.7-10.93,6.58-12.85,3.11-1.53,6.69-1.08,10.1,1.27h0c6.65,4.59,10.96,15.56,9.8,24.96-.64,5.15-2.93,9.11-6.3,10.88-1.26.66-2.62.99-4.01.99ZM59.87,396.35c-.52,0-1.05.11-1.56.36-2.12,1.05-3.56,4.32-3.76,8.55-.41,8.57,4.14,16.87,8.65,19.25,1.53.8,2.91.9,4.11.27,1.84-.96,3.2-3.58,3.62-7,.92-7.43-2.58-16.67-7.64-20.16h0c-.92-.63-2.14-1.26-3.41-1.26Z"/>
        </g>
      </g>
      <path class="cls-1" d="M295.79,151.09c-14.02-7.25-29.63-7.82-40.88-5.54-10.82,2.19-25.97,9.08-28.43,23.19-4.46,25.54,38.8,46.18,70.78,31.94,26.08-11.61,22.66-37.12-1.47-49.6ZM278.74,181.37c-9.61,4.28-22.61-1.93-21.27-9.6.74-4.24,5.29-6.31,8.54-6.97,3.38-.68,8.07-.51,12.29,1.67,7.25,3.75,8.28,11.42.44,14.9Z"/>
      <path class="cls-1" d="M204.26,201.18c-14.02-7.25-29.63-7.82-40.88-5.54-10.82,2.19-25.97,9.08-28.43,23.19-4.46,25.54,38.8,46.18,70.78,31.94,26.08-11.61,22.66-37.12-1.47-49.6ZM187.2,231.46c-9.61,4.28-22.61-1.93-21.27-9.6.74-4.24,5.29-6.31,8.54-6.97,3.38-.68,8.07-.51,12.29,1.67,7.25,3.75,8.28,11.42.44,14.9Z"/>
    </g>
  </g>
</svg>